# xmcd CD database file
#
# Track frame offsets:
#	150
#	62845
#	89686
#	114253
#	141520
#	165799
#
# Disc length: 2527 seconds
#
# Revision: 0
# Processed by: cddbd v1.5.1PL2 Copyright (c) Steve Scherf et al.
# Submitted via: CDex 1.50
#
DISCID=4b09dd06
DTITLE=Dusko Goykovich - It's About Blues Time
DYEAR=1971
DGENRE=Jazz
TTITLE0=It's about Blues Time
TTITLE1=Old Folks
TTITLE2=The End Of Love
TTITLE3=Bosna Calling
TTITLE4=You Know I Care
TTITLE5=Nameless Tune
EXTD=YEAR: 1971
EXTT0=
EXTT1=
EXTT2=
EXTT3=
EXTT4=
EXTT5=
PLAYORDER=
